<!DOCTYPE svg PUBLIC "-//W3C//DTD SVG 1.1//EN" "http://www.w3.org/Graphics/SVG/1.1/DTD/svg11.dtd">
<!-- Uploaded to: SVG Repo, www.svgrepo.com, Transformed by: SVG Repo Mixer Tools -->
<svg fill="#e92b2b" height="800px" width="800px" version="1.1" id="Layer_1" xmlns="http://www.w3.org/2000/svg" xmlns:xlink="http://www.w3.org/1999/xlink" viewBox="0 0 512 512" xml:space="preserve" stroke="#e92b2b">
<g id="SVGRepo_bgCarrier" stroke-width="0"/>
<g id="SVGRepo_tracerCarrier" stroke-linecap="round" stroke-linejoin="round"/>
<g id="SVGRepo_iconCarrier"> <g> <g> <g> <path d="M72.758,221.507c-4.465,0-8.084,3.618-8.084,8.084V256c0,4.466,3.62,8.084,8.084,8.084c4.465,0,8.084-3.619,8.084-8.084 v-26.408C80.842,225.126,77.223,221.507,72.758,221.507z"/> <path d="M503.916,398.821h-1.078c-4.465,0-8.084,3.618-8.084,8.084c0,4.466,3.62,8.084,8.084,8.084h1.078 c4.465,0,8.084-3.618,8.084-8.084C512,402.44,508.38,398.821,503.916,398.821z"/> <path d="M51.2,398.821h-1.078c-4.465,0-8.084,3.618-8.084,8.084c0,4.466,3.62,8.084,8.084,8.084H51.2 c4.465,0,8.084-3.618,8.084-8.084C59.284,402.44,55.665,398.821,51.2,398.821z"/> <path d="M461.878,398.821H460.8c-4.465,0-8.084,3.618-8.084,8.084c0,4.466,3.62,8.084,8.084,8.084h1.078 c4.465,0,8.084-3.618,8.084-8.084C469.962,402.44,466.343,398.821,461.878,398.821z"/> <path d="M9.162,398.821H8.084C3.62,398.821,0,402.44,0,406.905c0,4.466,3.62,8.084,8.084,8.084h1.078 c4.465,0,8.084-3.618,8.084-8.084C17.246,402.44,13.627,398.821,9.162,398.821z"/> <path d="M72.758,194.021c-4.465,0-8.084,3.618-8.084,8.084v1.078c0,4.466,3.62,8.084,8.084,8.084 c4.465,0,8.084-3.619,8.084-8.084v-1.078C80.842,197.64,77.223,194.021,72.758,194.021z"/> <path d="M374.568,161.684c-4.465,0-8.084,3.619-8.084,8.084v43.116c0,4.466,3.62,8.084,8.084,8.084s8.084-3.619,8.084-8.084 v-43.116C382.653,165.303,379.033,161.684,374.568,161.684z"/> <path d="M439.242,221.507c-4.465,0-8.084,3.618-8.084,8.084V256c0,4.466,3.62,8.084,8.084,8.084c4.465,0,8.084-3.619,8.084-8.084 v-26.408C447.326,225.126,443.707,221.507,439.242,221.507z"/> <path d="M439.242,194.021c-4.465,0-8.084,3.618-8.084,8.084v1.078c0,4.466,3.62,8.084,8.084,8.084 c4.465,0,8.084-3.619,8.084-8.084v-1.078C447.326,197.64,443.707,194.021,439.242,194.021z"/> <path d="M493.137,226.358h-13.474v-35.032c0-16.344-13.297-29.642-29.642-29.642h-21.558c-4.848,0-9.429,1.171-13.474,3.243 v-38.275c0-16.344-13.297-29.642-29.642-29.642h-21.558c-16.345,0-29.642,13.298-29.642,29.642v99.705H177.853v-99.705 c0-16.344-13.297-29.642-29.642-29.642h-21.558c-16.345,0-29.642,13.298-29.642,29.642v38.275 c-4.044-2.073-8.625-3.243-13.474-3.243H61.979c-16.345,0-29.642,13.298-29.642,29.642v35.032H18.863 C8.463,226.358,0,234.82,0,245.221v21.558c0,10.401,8.463,18.863,18.863,18.863h13.474v35.032 c0,16.344,13.297,29.642,29.642,29.642h21.558c4.848,0,9.429-1.171,13.474-3.243v38.275c0,4.848,1.171,9.429,3.242,13.474H78.147 c-4.465,0-8.084,3.618-8.084,8.084c0,4.466,3.62,8.084,8.084,8.084h355.705c4.465,0,8.084-3.618,8.084-8.084 c0-4.466-3.62-8.084-8.084-8.084h-22.105c2.072-4.044,3.242-8.625,3.242-13.474v-38.275c4.044,2.073,8.625,3.243,13.474,3.243 h21.558c16.345,0,29.642-13.298,29.642-29.642v-35.032h13.474c10.401,0,18.863-8.463,18.863-18.863v-21.558 C512,234.82,503.537,226.358,493.137,226.358z M32.337,269.474H18.863c-1.485,0-2.695-1.208-2.695-2.695v-21.558 c0-1.486,1.209-2.695,2.695-2.695h13.474V269.474z M97.011,320.674c0,7.43-6.044,13.474-13.474,13.474H61.979 c-7.43,0-13.474-6.044-13.474-13.474V191.326c0-7.43,6.044-13.474,13.474-13.474h21.558c7.43,0,13.474,6.044,13.474,13.474 V320.674z M161.684,385.347c0,7.43-6.044,13.474-13.474,13.474h-21.558c-7.43,0-13.474-6.044-13.474-13.474V126.653 c0-7.43,6.044-13.474,13.474-13.474h21.558c7.43,0,13.474,6.044,13.474,13.474V385.347z M177.853,242.526h156.295v26.947H177.853 V242.526z M174.61,398.821c2.072-4.044,3.242-8.625,3.242-13.474v-99.705h156.295v99.705c0,4.848,1.171,9.429,3.242,13.474 H174.61z M398.821,385.347c0,7.43-6.044,13.474-13.474,13.474h-21.558c-7.43,0-13.474-6.044-13.474-13.474V126.653 c0-7.43,6.044-13.474,13.474-13.474h21.558c7.43,0,13.474,6.044,13.474,13.474V385.347z M463.495,320.674 c0,7.43-6.044,13.474-13.474,13.474h-21.558c-7.43,0-13.474-6.044-13.474-13.474V191.326c0-7.43,6.044-13.474,13.474-13.474 h21.558c7.43,0,13.474,6.044,13.474,13.474V320.674z M495.832,266.779c0,1.486-1.209,2.695-2.695,2.695h-13.474v-26.947h13.474 c1.485,0,2.695,1.208,2.695,2.695V266.779z"/> <path d="M374.568,134.198c-4.465,0-8.084,3.619-8.084,8.084v1.078c0,4.466,3.62,8.084,8.084,8.084s8.084-3.618,8.084-8.084 v-1.078C382.653,137.816,379.033,134.198,374.568,134.198z"/> <path d="M137.432,134.198c-4.465,0-8.084,3.619-8.084,8.084v1.078c0,4.466,3.62,8.084,8.084,8.084 c4.465,0,8.084-3.618,8.084-8.084v-1.078C145.516,137.816,141.896,134.198,137.432,134.198z"/> <path d="M137.432,161.684c-4.465,0-8.084,3.619-8.084,8.084v43.116c0,4.466,3.62,8.084,8.084,8.084 c4.465,0,8.084-3.619,8.084-8.084v-43.116C145.516,165.303,141.896,161.684,137.432,161.684z"/> </g> </g> </g> </g>
</svg>