<!DOCTYPE svg PUBLIC "-//W3C//DTD SVG 1.1//EN" "http://www.w3.org/Graphics/SVG/1.1/DTD/svg11.dtd">
<!-- Uploaded to: SVG Repo, www.svgrepo.com, Transformed by: SVG Repo Mixer Tools -->
<svg fill="#e92b2b" height="800px" width="800px" version="1.1" id="Layer_1" xmlns="http://www.w3.org/2000/svg" xmlns:xlink="http://www.w3.org/1999/xlink" viewBox="0 0 512 512" xml:space="preserve" stroke="#e92b2b">
<g id="SVGRepo_bgCarrier" stroke-width="0"/>
<g id="SVGRepo_tracerCarrier" stroke-linecap="round" stroke-linejoin="round"/>
<g id="SVGRepo_iconCarrier"> <g> <g> <path d="M407.502,309.024c-10.249-11.535-27.804-13.128-39.964-3.622l-70.593,55.185c-3.959,3.094-8.902,4.779-13.929,4.726 l-78.155-0.729c-4.068-0.038-7.472-3.247-7.749-7.306c-0.149-2.195,0.596-4.288,2.101-5.893c1.499-1.601,3.53-2.48,5.721-2.48 c0.007,0,0.015,0,0.021,0l68.041,0.18c0.022,0,0.045,0,0.068,0c13.359,0,24.699-10.41,25.832-23.728 c0.606-7.122-1.666-13.995-6.397-19.354c-4.731-5.359-11.271-8.464-18.413-8.745l-108.589-4.28 c-4.547-0.18-9.134,0.052-13.634,0.687c-20.148,2.841-37.798,16.405-46.061,35.397c-7.502,17.244-19.005,32.839-33.264,45.097 l-21.199,18.226c-3.519,3.025-3.919,8.331-0.893,11.85c1.661,1.933,4.012,2.924,6.375,2.924c1.939,0,3.889-0.668,5.474-2.031 l21.198-18.226c16.17-13.901,29.212-31.584,37.719-51.137c5.949-13.674,18.592-23.43,32.998-25.462 c3.507-0.494,7.081-0.676,10.624-0.536l108.589,4.28c2.513,0.099,4.813,1.191,6.477,3.076c1.664,1.884,2.464,4.302,2.25,6.808 c-0.398,4.685-4.387,8.347-9.086,8.347c-0.008,0-0.016,0-0.024,0l-68.041-0.18c-0.021,0-0.043,0-0.064,0 c-6.792,0-13.344,2.84-17.988,7.798c-4.658,4.973-7.064,11.726-6.601,18.524c0.869,12.76,11.569,22.848,24.358,22.967 l78.154,0.729c8.805,0.072,17.492-2.861,24.437-8.291l70.593-55.185c5.187-4.057,12.678-3.377,17.052,1.547 c2.225,2.505,3.338,5.727,3.133,9.071c-0.205,3.344-1.703,6.405-4.217,8.62l-50.855,44.787c-3.482,3.068-3.819,8.377-0.752,11.859 c3.068,3.482,8.377,3.82,11.859,0.752l50.855-44.787c5.893-5.189,9.403-12.365,9.884-20.203 C415.325,322.447,412.718,314.897,407.502,309.024z"/> </g> </g> <g> <g> <path d="M332.239,403.343c-3.066-3.482-8.377-3.819-11.86-0.753l-16.494,14.525c-7.525,6.628-17.192,10.324-27.219,10.41 l-121.048,1.031c-8.314,0.071-16.274,3.197-22.413,8.805l-35.419,32.352c-3.427,3.129-3.667,8.445-0.537,11.871 c1.657,1.815,3.928,2.736,6.207,2.736c2.023,0,4.053-0.726,5.664-2.198l35.419-32.352c3.074-2.808,7.059-4.374,11.223-4.41 l121.047-1.031c14.067-0.119,27.627-5.305,38.184-14.603l16.494-14.525C334.969,412.135,335.306,406.825,332.239,403.343z"/> </g> </g> <g> <g> <path d="M503.597,268.261h-64.459C434.731,171.054,354.277,93.325,256,93.325c-60.999,0-117.829,30.216-152.023,80.827 c-2.598,3.846-1.586,9.069,2.259,11.667c3.845,2.597,9.069,1.588,11.667-2.259c31.063-45.98,82.687-73.43,138.097-73.43 c89.008,0,161.931,70.193,166.323,158.131H89.674c0.972-19.747,5.38-38.897,13.141-57.039c1.825-4.266-0.153-9.205-4.421-11.03 c-4.266-1.825-9.205,0.153-11.03,4.421c-8.659,20.24-13.52,41.615-14.506,63.649H8.403c-4.641,0-8.403,3.762-8.403,8.403 s3.762,8.403,8.403,8.403h495.195c4.641,0,8.403-3.762,8.403-8.403S508.238,268.261,503.597,268.261z"/> </g> </g> <g> <g> <path d="M256,27.679c-15.836,0-28.719,12.884-28.719,28.72c0,15.836,12.883,28.72,28.719,28.72s28.72-12.884,28.72-28.72 C284.72,40.563,271.836,27.679,256,27.679z M256,68.316c-6.57,0-11.914-5.345-11.914-11.915c0-6.57,5.344-11.915,11.914-11.915 c6.57,0,11.915,5.345,11.915,11.915C267.915,62.97,262.57,68.316,256,68.316z"/> </g> </g> </g>
</svg>